<?xml version="1.0" encoding="UTF-8"?>
<svg xmlns="http://www.w3.org/2000/svg" xmlns:xlink="http://www.w3.org/1999/xlink" width="500pt" height="500pt" viewBox="0 0 500 500" version="1.1">
<g id="surface1">
<path style=" stroke:none;fill-rule:nonzero;fill:#5B5B5B;fill-opacity:1;" d="M 248.015625 39.683594 L 39.683594 172.0625 L 39.683594 323.933594 L 248.015625 456.347656 L 456.347656 323.972656 L 456.347656 172.0625 Z M 248.015625 289.519531 L 189.152344 248.714844 L 248.015625 208.566406 L 306.882813 248.714844 Z M 267.855469 174.65625 L 267.855469 98.703125 L 401.089844 183.375 L 341.371094 224.765625 Z M 228.175781 174.65625 L 154.660156 224.765625 L 94.945313 183.375 L 228.175781 98.703125 Z M 119.976563 248.441406 L 79.363281 276.113281 L 79.363281 220.269531 Z M 154.46875 272.351563 L 228.175781 323.46875 L 228.175781 397.328125 L 95.136719 312.769531 Z M 267.855469 323.46875 L 341.5625 272.351563 L 400.894531 312.769531 L 267.855469 397.328125 Z M 376.054688 248.441406 L 416.667969 220.269531 L 416.667969 276.113281 Z "/>
</g>
</svg>
