<?xml version="1.0" encoding="UTF-8"?>
<svg xmlns="http://www.w3.org/2000/svg" xmlns:xlink="http://www.w3.org/1999/xlink" width="500pt" height="500pt" viewBox="0 0 500 500" version="1.1">
<g id="surface1">
<path style=" stroke:none;fill-rule:nonzero;fill:#5B5B5B;fill-opacity:1;" d="M 246.710938 49.34375 C 137.683594 49.34375 49.34375 137.683594 49.34375 246.710938 C 49.34375 339.164063 113.011719 416.582031 198.910156 437.976563 C 197.945313 435.339844 197.367188 432.257813 197.367188 428.402344 L 197.367188 394.671875 C 189.335938 394.671875 175.910156 394.671875 172.570313 394.671875 C 159.078125 394.671875 147.0625 388.890625 141.214844 378.097656 C 134.792969 366.082031 133.636719 347.773438 117.636719 336.527344 C 112.882813 332.800781 116.480469 328.5625 121.941406 329.140625 C 132.09375 331.96875 140.445313 338.90625 148.347656 349.183594 C 156.25 359.527344 159.910156 361.84375 174.625 361.84375 C 181.757813 361.84375 192.421875 361.457031 202.445313 359.851563 C 207.839844 346.164063 217.15625 333.574219 228.527344 327.597656 C 162.804688 320.851563 131.449219 288.148438 131.449219 243.753906 C 131.449219 224.609375 139.609375 206.171875 153.421875 190.558594 C 148.925781 175.140625 143.207031 143.59375 155.15625 131.578125 C 184.777344 131.578125 202.636719 150.726563 206.941406 155.929688 C 221.652344 150.917969 237.84375 148.027344 254.871094 148.027344 C 271.894531 148.027344 288.148438 150.917969 302.925781 155.992188 C 307.167969 150.851563 325.027344 131.578125 354.710938 131.578125 C 366.726563 143.59375 360.941406 175.265625 356.382813 190.6875 C 370.128906 206.234375 378.226563 224.671875 378.226563 243.753906 C 378.226563 288.085938 346.871094 320.789063 281.277344 327.597656 C 299.328125 336.976563 312.5 363.511719 312.5 383.429688 L 312.5 428.402344 C 312.5 430.136719 312.113281 431.359375 311.921875 432.835938 C 388.824219 405.851563 444.078125 332.800781 444.078125 246.710938 C 444.078125 137.683594 355.738281 49.34375 246.710938 49.34375 Z "/>
</g>
</svg>
