<?xml version="1.0" encoding="UTF-8"?>
<svg xmlns="http://www.w3.org/2000/svg" xmlns:xlink="http://www.w3.org/1999/xlink" width="500pt" height="500pt" viewBox="0 0 500 500" version="1.1">
<g id="surface1">
<path style=" stroke:none;fill-rule:nonzero;fill:#5B5B5B;fill-opacity:1;" d="M 158.730469 29.761719 C 87.621094 29.761719 29.761719 87.621094 29.761719 158.730469 L 29.761719 337.300781 C 29.761719 408.414063 87.621094 466.269531 158.730469 466.269531 L 337.300781 466.269531 C 408.414063 466.269531 466.269531 408.414063 466.269531 337.300781 L 466.269531 158.730469 C 466.269531 87.621094 408.414063 29.761719 337.300781 29.761719 Z M 158.730469 49.601563 L 337.300781 49.601563 C 397.679688 49.601563 446.429688 98.355469 446.429688 158.730469 L 446.429688 337.300781 C 446.429688 397.679688 397.679688 446.429688 337.300781 446.429688 L 158.730469 446.429688 C 98.355469 446.429688 49.601563 397.679688 49.601563 337.300781 L 49.601563 158.730469 C 49.601563 98.355469 98.355469 49.601563 158.730469 49.601563 Z M 367.0625 109.128906 C 356.097656 109.128906 347.222656 118 347.222656 128.96875 C 347.222656 139.933594 356.097656 148.808594 367.0625 148.808594 C 378.03125 148.808594 386.90625 139.933594 386.90625 128.96875 C 386.90625 118 378.03125 109.128906 367.0625 109.128906 Z M 248.015625 138.890625 C 187.871094 138.890625 138.890625 187.871094 138.890625 248.015625 C 138.890625 308.160156 187.871094 357.144531 248.015625 357.144531 C 308.160156 357.144531 357.144531 308.160156 357.144531 248.015625 C 357.144531 187.871094 308.160156 138.890625 248.015625 138.890625 Z M 248.015625 158.730469 C 297.425781 158.730469 337.300781 198.605469 337.300781 248.015625 C 337.300781 297.425781 297.425781 337.300781 248.015625 337.300781 C 198.605469 337.300781 158.730469 297.425781 158.730469 248.015625 C 158.730469 198.605469 198.605469 158.730469 248.015625 158.730469 Z "/>
</g>
</svg>
