<?xml version="1.0" encoding="UTF-8"?>
<svg xmlns="http://www.w3.org/2000/svg" xmlns:xlink="http://www.w3.org/1999/xlink" width="4096pt" height="4096pt" viewBox="0 0 4096 4096" version="1.1">
<g id="surface1">
<path style=" stroke:none;fill-rule:nonzero;fill:#FFD600;fill-opacity:1;" d="M 512 3584 L 512 512 L 3584 512 L 3584 3584 Z "/>
<path style=" stroke:none;fill-rule:nonzero;fill:#000001;fill-opacity:1;" d="M 2520.574219 2811.476563 C 2579.625 2907.390625 2643.796875 2999.296875 2779.734375 2999.296875 C 2893.910156 2999.296875 2953.8125 2942.550781 2953.8125 2864.042969 C 2953.8125 2770.089844 2891.863281 2736.726563 2766.25 2682.027344 L 2697.386719 2652.671875 C 2498.644531 2568.363281 2366.464844 2462.71875 2366.464844 2239.574219 C 2366.464844 2033.921875 2523.902344 1877.417969 2769.921875 1877.417969 C 2945.109375 1877.417969 3070.976563 1938.089844 3161.769531 2096.980469 L 2947.242188 2234.113281 C 2900.054688 2149.800781 2849.023438 2116.609375 2769.921875 2116.609375 C 2689.195313 2116.609375 2638.078125 2167.550781 2638.078125 2234.113281 C 2638.078125 2316.375 2689.28125 2349.652344 2807.464844 2400.597656 L 2876.332031 2429.953125 C 3110.570313 2529.707031 3242.667969 2631.59375 3242.667969 2860.628906 C 3242.667969 3107.414063 3047.765625 3242.667969 2786.132813 3242.667969 C 2530.21875 3242.667969 2384.894531 3114.238281 2304 2955.265625 Z "/>
<path style=" stroke:none;fill-rule:nonzero;fill:#000001;fill-opacity:1;" d="M 1531.902344 2818.476563 C 1575.082031 2895.785156 1640.703125 2955.265625 1735.082031 2955.265625 C 1825.367188 2955.265625 1877.332031 2919.59375 1877.332031 2780.929688 L 1877.332031 1877.332031 L 2161.75 1877.332031 L 2161.75 2824.617188 C 2161.75 3111.9375 1995.09375 3242.667969 1751.722656 3242.667969 C 1531.820313 3242.667969 1373.097656 3093.675781 1308.414063 2955.265625 Z "/>
</g>
</svg>
