<svg xmlns="http://www.w3.org/2000/svg" viewBox="0 0 2760.37 1443.89"><defs><style>.cls-1{fill:#ffd600;}.cls-2{fill:#000001;}.cls-3{font-size:523px;font-family:JosefinSans-Bold, Josefin Sans;font-weight:700;}.cls-4{letter-spacing:-0.01em;}.cls-5{letter-spacing:0em;}.cls-6{letter-spacing:0em;}.cls-7{letter-spacing:-0.01em;}.cls-8{letter-spacing:0em;}.cls-9{letter-spacing:-0.02em;}</style></defs><title>6.14 x 9.21 printsimple-js-audio-player-logo</title><g id="Layer_2" data-name="Layer 2"><g id="Layer_1-2" data-name="Layer 1"><g id="surface1"><path class="cls-1" d="M1626.27,833.24V0h833.24V833.24Z"/><path class="cls-2" d="M2171.07,623.7c16,26,33.42,50.94,70.29,50.94,31,0,47.22-15.39,47.22-36.69,0-25.48-16.8-34.53-50.87-49.37l-18.68-8c-53.91-22.87-89.76-51.52-89.76-112,0-55.78,42.7-98.23,109.43-98.23,47.52,0,81.66,16.46,106.28,59.55l-58.19,37.2c-12.8-22.87-26.64-31.87-48.1-31.87-21.9,0-35.76,13.82-35.76,31.87,0,22.31,13.89,31.34,45.94,45.16l18.68,8c63.53,27.06,99.36,54.69,99.36,116.81,0,66.94-52.86,103.62-123.83,103.62-69.41,0-108.83-34.83-130.77-78Z"/><path class="cls-2" d="M1902.9,625.6c11.71,21,29.51,37.1,55.11,37.1,24.49,0,38.58-9.68,38.58-47.29V370.33h77.14V627.27c0,77.93-45.2,113.39-111.21,113.39-59.65,0-102.7-40.41-120.24-78Z"/></g><text class="cls-3" transform="translate(0 679.78)"><tspan class="cls-4">S</tspan><tspan x="295.5" y="0">imple</tspan><tspan class="cls-5"><tspan x="0" y="627.6">A</tspan><tspan class="cls-6" x="338.91" y="627.6">udio </tspan><tspan x="1397.97" y="627.6">P</tspan><tspan class="cls-6" x="1700.26" y="627.6">la</tspan><tspan class="cls-7" x="2097.74" y="627.6">y</tspan><tspan class="cls-8" x="2346.16" y="627.6">e</tspan><tspan class="cls-9" x="2594.06" y="627.6">r</tspan></tspan></text></g></g></svg>