<?xml version="1.0" encoding="UTF-8"?>
<svg xmlns="http://www.w3.org/2000/svg" xmlns:xlink="http://www.w3.org/1999/xlink" width="500pt" height="500pt" viewBox="0 0 500 500" version="1.1">
<g id="surface1">
<path style=" stroke:none;fill-rule:nonzero;fill:#5B5B5B;fill-opacity:1;" d="M 460.527344 114.105469 C 444.785156 121.105469 427.886719 125.796875 410.15625 127.917969 C 428.273438 117.058594 442.152344 99.839844 448.703125 79.347656 C 431.742188 89.433594 412.984375 96.757813 393.003906 100.675781 C 377.003906 83.648438 354.195313 72.984375 328.949219 72.984375 C 280.503906 72.984375 241.183594 112.242188 241.183594 160.683594 C 241.183594 167.558594 242.019531 174.304688 243.5 180.664063 C 170.578125 177.003906 105.945313 142.117188 62.640625 88.984375 C 55.125 101.960938 50.820313 116.996094 50.820313 133.121094 C 50.820313 163.574219 66.238281 190.429688 89.816406 206.105469 C 75.425781 205.65625 61.871094 201.738281 50.050781 195.183594 C 50.050781 195.570313 50.050781 195.890625 50.050781 196.277344 C 50.050781 238.808594 80.308594 274.273438 120.464844 282.304688 C 113.074219 284.296875 105.300781 285.386719 97.335938 285.386719 C 91.679688 285.386719 86.15625 284.808594 80.824219 283.78125 C 92.003906 318.667969 124.382813 344.046875 162.804688 344.753906 C 132.734375 368.265625 94.957031 382.273438 53.839844 382.273438 C 46.773438 382.273438 39.769531 381.886719 32.894531 381.050781 C 71.699219 405.980469 117.828125 420.5 167.363281 420.5 C 328.753906 420.5 416.964844 286.800781 416.964844 170.835938 C 416.964844 167.042969 416.902344 163.253906 416.710938 159.527344 C 433.863281 147.125 448.769531 131.707031 460.527344 114.105469 Z "/>
</g>
</svg>
